<svg xmlns="http://www.w3.org/2000/svg" width="64" height="64" viewBox="0 0 64 64"><rect width="64" height="64" rx="14" fill="#2A2E34"></rect><g fill="#FBFAF7" transform="translate(1 5) scale(0.42)"><path d="M54.4 103.6 A 40 40 0 0 1 35.4 32.5" fill="none" stroke="#FBFAF7" stroke-width="2.4"></path><path d="M54.4 103.6 Q51.2 93.7 41.1 91.6 Q44.3 101.5 54.4 103.6 Z M40.6 99 Q41.2 88.6 32.4 82.9 Q31.9 93.3 40.6 99 Z M29.4 89.7 Q33.6 80.2 27.5 71.8 Q23.2 81.3 29.4 89.7 Z M22.2 77 Q29.5 69.7 26.8 59.6 Q19.5 67 22.2 77 Z M20 62.6 Q29.5 58.4 30.6 48 Q21.1 52.3 20 62.6 Z M23.2 48.4 Q33.6 47.8 38.3 38.6 Q27.9 39.1 23.2 48.4 Z M31.2 36.2 Q41.1 39.4 48.8 32.5 Q38.9 29.3 31.2 36.2 Z "></path></g><g fill="#FBFAF7" transform="translate(63 5) scale(-0.42 0.42)"><path d="M54.4 103.6 A 40 40 0 0 1 35.4 32.5" fill="none" stroke="#FBFAF7" stroke-width="2.4"></path><path d="M54.4 103.6 Q51.2 93.7 41.1 91.6 Q44.3 101.5 54.4 103.6 Z M40.6 99 Q41.2 88.6 32.4 82.9 Q31.9 93.3 40.6 99 Z M29.4 89.7 Q33.6 80.2 27.5 71.8 Q23.2 81.3 29.4 89.7 Z M22.2 77 Q29.5 69.7 26.8 59.6 Q19.5 67 22.2 77 Z M20 62.6 Q29.5 58.4 30.6 48 Q21.1 52.3 20 62.6 Z M23.2 48.4 Q33.6 47.8 38.3 38.6 Q27.9 39.1 23.2 48.4 Z M31.2 36.2 Q41.1 39.4 48.8 32.5 Q38.9 29.3 31.2 36.2 Z "></path></g><path d="M41.42 41L37.81 41L37.81 40.95Q37.83 40.88 37.85 40.75Q37.86 40.62 37.86 40.51L37.86 40.51Q37.86 40.10 37.75 39.61Q37.64 39.11 37.32 38.38L37.32 38.38L35.72 34.79Q34.99 34.76 33.76 34.76Q32.53 34.76 31.11 34.76L31.11 34.76Q30.07 34.76 29.10 34.76Q28.13 34.76 27.35 34.79L27.35 34.79L25.84 38.27Q25.64 38.76 25.41 39.34Q25.19 39.92 25.19 40.51L25.19 40.51Q25.19 40.68 25.22 40.80Q25.24 40.91 25.27 40.95L25.27 40.95L25.27 41L22.58 41L22.58 40.95Q22.82 40.70 23.17 40.06Q23.53 39.42 23.95 38.46L23.95 38.46L31.51 21.70L32.56 21.70L39.72 37.81Q39.97 38.38 40.24 38.91Q40.51 39.44 40.75 39.87Q40.98 40.29 41.17 40.58Q41.35 40.87 41.42 40.95L41.42 40.95L41.42 41ZM27.84 33.63L29.26 33.63Q30.03 33.63 30.83 33.62Q31.64 33.62 32.41 33.61Q33.18 33.60 33.89 33.60Q34.60 33.59 35.18 33.58L35.18 33.58L31.48 25.21L27.84 33.63Z" fill="#FBFAF7"></path></svg>